<svg width="200" height="187" viewBox="0 0 200 187" fill="none" xmlns="http://www.w3.org/2000/svg">
<path d="M106.805 178.797C155.671 178.797 195.3 139.466 195.3 90.8987C195.3 42.3309 155.671 3 106.805 3C57.9395 3 18.3105 42.3309 18.3105 90.8987C18.3105 139.466 57.9395 178.797 106.805 178.797Z" fill="#EAE9F7"/>
<path d="M174.591 79.4271V133.209C174.591 144.383 165.504 153.471 154.181 153.471H59.7273C48.5537 153.471 39.4659 144.532 39.3169 133.358C39.3169 133.209 39.3169 133.209 39.3169 133.06V79.4271C39.3169 79.2781 39.3169 79.2781 39.3169 79.1291C39.3169 78.8312 39.3169 78.5332 39.4659 78.2352C39.6149 77.7883 39.7638 77.4903 39.9128 77.0434L65.2396 28.6246C66.1334 26.6879 68.0702 25.645 70.1559 25.645H143.603C145.689 25.645 147.477 26.6879 148.52 28.6246L173.847 77.0434C173.996 77.3414 174.145 77.7883 174.294 78.2352C174.591 78.5332 174.591 78.9802 174.591 79.4271Z" fill="#7D629F"/>
<g filter="url(#filter0_d_173_3087)">
<path d="M126.321 79.8741H88.0328C86.394 79.8741 85.0532 78.6822 85.0532 76.8944V24.6022C85.0532 22.9634 86.2451 21.6226 88.0328 21.6226H126.172C127.811 21.6226 129.152 22.8144 129.152 24.6022V76.8944C129.152 78.5332 127.96 79.8741 126.321 79.8741Z" fill="#F5F8FF"/>
</g>
<g filter="url(#filter1_d_173_3087)">
<path d="M138.985 92.2398H75.37C73.2843 92.2398 71.6455 90.452 71.6455 88.5153V37.7128C71.6455 35.6271 73.4333 33.9883 75.37 33.9883H138.985C141.071 33.9883 142.709 35.7761 142.709 37.7128V88.5153C142.56 90.601 141.071 92.2398 138.985 92.2398Z" fill="#F5F8FF"/>
</g>
<g filter="url(#filter2_d_173_3087)">
<path d="M146.285 106.69H68.2188C65.9841 106.69 64.0474 104.754 64.0474 102.668V52.6104C64.0474 50.3757 65.9841 48.5879 68.2188 48.5879H146.285C148.519 48.5879 150.456 50.5246 150.456 52.6104V102.519C150.307 104.903 148.519 106.69 146.285 106.69Z" fill="#F5F8FF"/>
</g>
<g filter="url(#filter3_d_173_3087)">
<path d="M154.181 120.695H60.3234C57.7908 120.695 55.854 118.609 55.854 116.374V67.0617C55.854 64.529 57.9397 62.7412 60.3234 62.7412H154.181C156.714 62.7412 158.651 64.8269 158.651 67.0617V116.225C158.502 118.758 156.714 120.695 154.181 120.695Z" fill="#F5F8FF"/>
</g>
<path d="M126.023 82.2577H90.715C89.8211 82.2577 88.9272 81.5128 88.9272 80.4699C88.9272 79.576 89.6721 78.6821 90.715 78.6821H126.023C126.917 78.6821 127.811 79.427 127.811 80.4699C127.811 81.5128 127.066 82.2577 126.023 82.2577Z" fill="#E6ECF5"/>
<path d="M115.744 92.6863H71.0502C70.4543 92.6863 70.0073 92.2394 70.0073 91.6435C70.0073 91.0475 70.4543 90.6006 71.0502 90.6006H115.595C116.191 90.6006 116.638 91.0475 116.638 91.6435C116.936 91.9414 116.489 92.6863 115.744 92.6863Z" fill="#E6ECF5"/>
<path d="M145.093 92.6863H122.597C122.001 92.6863 121.554 92.2394 121.554 91.6435C121.554 91.0475 122.001 90.6006 122.597 90.6006H144.944C145.54 90.6006 145.987 91.0475 145.987 91.6435C146.285 91.9414 145.838 92.6863 145.093 92.6863Z" fill="#E6ECF5"/>
<g filter="url(#filter4_d_173_3087)">
<path d="M166.818 82.1237V133.114C166.818 140.366 161.016 146.168 153.632 146.168H60.2758C53.0235 146.168 47.0898 140.366 47.0898 133.114V81.86C47.0898 81.5963 47.0898 81.3326 47.2217 81.0688H72.8162C77.2994 81.0688 80.9914 84.629 80.9914 89.2441C80.9914 91.4857 81.9145 93.5955 83.3649 95.0459C84.9472 96.6282 86.7933 97.4194 89.1667 97.4194H126.363C130.846 97.4194 134.538 93.8592 134.538 89.2441C134.538 87.0025 135.461 84.8928 136.912 83.4423C138.494 81.86 140.34 81.0688 142.581 81.0688H166.554C166.818 81.3326 166.818 81.7281 166.818 82.1237Z" fill="white"/>
</g>
<g filter="url(#filter5_d_173_3087)">
<path d="M174.591 79.4272V138.722C174.591 146.916 168.036 153.471 159.693 153.471H54.215C46.021 153.471 39.3169 146.916 39.3169 138.722V79.1292C39.3169 78.8313 39.3169 78.5333 39.4659 78.2354H73.4335C78.4988 78.2354 82.6703 82.2578 82.6703 87.4722C82.6703 90.0048 83.7132 92.3885 85.352 94.0273C87.1397 95.8151 89.2255 96.709 91.9071 96.709H122.15C127.216 96.709 131.387 92.6865 131.387 87.4722C131.387 84.9395 132.43 82.5558 134.069 80.917C135.856 79.1292 137.942 78.2354 140.475 78.2354H174.294C174.591 78.5333 174.591 78.9803 174.591 79.4272Z" fill="url(#paint0_linear_173_3087)"/>
</g>
<path d="M159.693 132.018H129.003C127.96 132.018 127.066 131.273 127.066 130.081C127.066 129.038 127.811 128.144 129.003 128.144H159.395C160.438 128.144 161.332 128.889 161.332 130.081C161.481 130.975 160.587 132.018 159.693 132.018Z" fill="#E6ECF5"/>
<path d="M145.987 141.403H129.003C127.96 141.403 127.066 140.658 127.066 139.467C127.066 138.424 127.811 137.53 129.003 137.53H145.838C146.881 137.53 147.775 138.275 147.775 139.467C147.924 140.36 147.03 141.403 145.987 141.403Z" fill="#E6ECF5"/>
<path d="M135.419 147.66C134.823 150.193 133.929 152.874 132.886 155.109C130.056 160.621 125.586 164.942 120.074 167.772C114.413 170.603 107.708 171.795 101.004 170.305C85.0634 166.879 74.9327 151.534 78.2103 135.742C81.4878 119.95 96.8329 109.67 112.625 113.096C118.286 114.288 123.202 117.119 127.374 120.992C134.525 127.995 137.356 137.976 135.419 147.66Z" fill="#7933D1"/>
<path d="M114.595 139.557H108.94V133.902C108.94 132.771 108.06 131.766 106.804 131.766C105.673 131.766 104.667 132.645 104.667 133.902V139.557H99.0123C97.8813 139.557 96.876 140.437 96.876 141.693C96.876 142.95 97.7557 143.83 99.0123 143.83H104.667V149.485C104.667 150.616 105.547 151.621 106.804 151.621C107.935 151.621 108.94 150.742 108.94 149.485V143.83H114.595C115.726 143.83 116.732 142.95 116.732 141.693C116.732 140.437 115.726 139.557 114.595 139.557Z" fill="white"/>
<path d="M193.038 48.8859C196.412 48.8859 199.147 46.1511 199.147 42.7776C199.147 39.4042 196.412 36.6694 193.038 36.6694C189.665 36.6694 186.93 39.4042 186.93 42.7776C186.93 46.1511 189.665 48.8859 193.038 48.8859Z" fill="#EAEEF9"/>
<path d="M186.931 29.0714C189.235 29.0714 191.102 27.2038 191.102 24.9C191.102 22.5961 189.235 20.7285 186.931 20.7285C184.627 20.7285 182.759 22.5961 182.759 24.9C182.759 27.2038 184.627 29.0714 186.931 29.0714Z" fill="#EAEEF9"/>
<path d="M17.9864 42.778C20.2902 42.778 22.1579 40.9104 22.1579 38.6065C22.1579 36.3027 20.2902 34.4351 17.9864 34.4351C15.6826 34.4351 13.8149 36.3027 13.8149 38.6065C13.8149 40.9104 15.6826 42.778 17.9864 42.778Z" fill="#EAEEF9"/>
<path d="M8.60052 134.55C12.8791 134.55 16.3475 131.082 16.3475 126.803C16.3475 122.525 12.8791 119.056 8.60052 119.056C4.32197 119.056 0.853516 122.525 0.853516 126.803C0.853516 131.082 4.32197 134.55 8.60052 134.55Z" fill="#EAEEF9"/>
<defs>
<filter id="filter0_d_173_3087" x="63.0532" y="0.622559" width="88.0981" height="102.251" filterUnits="userSpaceOnUse" color-interpolation-filters="sRGB">
<feFlood flood-opacity="0" result="BackgroundImageFix"/>
<feColorMatrix in="SourceAlpha" type="matrix" values="0 0 0 0 0 0 0 0 0 0 0 0 0 0 0 0 0 0 127 0" result="hardAlpha"/>
<feOffset dy="1"/>
<feGaussianBlur stdDeviation="11"/>
<feColorMatrix type="matrix" values="0 0 0 0 0.397708 0 0 0 0 0.47749 0 0 0 0 0.575 0 0 0 0.18 0"/>
<feBlend mode="normal" in2="BackgroundImageFix" result="effect1_dropShadow_173_3087"/>
<feBlend mode="normal" in="SourceGraphic" in2="effect1_dropShadow_173_3087" result="shape"/>
</filter>
<filter id="filter1_d_173_3087" x="49.6455" y="12.9883" width="115.064" height="102.251" filterUnits="userSpaceOnUse" color-interpolation-filters="sRGB">
<feFlood flood-opacity="0" result="BackgroundImageFix"/>
<feColorMatrix in="SourceAlpha" type="matrix" values="0 0 0 0 0 0 0 0 0 0 0 0 0 0 0 0 0 0 127 0" result="hardAlpha"/>
<feOffset dy="1"/>
<feGaussianBlur stdDeviation="11"/>
<feColorMatrix type="matrix" values="0 0 0 0 0.397708 0 0 0 0 0.47749 0 0 0 0 0.575 0 0 0 0.18 0"/>
<feBlend mode="normal" in2="BackgroundImageFix" result="effect1_dropShadow_173_3087"/>
<feBlend mode="normal" in="SourceGraphic" in2="effect1_dropShadow_173_3087" result="shape"/>
</filter>
<filter id="filter2_d_173_3087" x="42.0474" y="27.5879" width="130.409" height="102.103" filterUnits="userSpaceOnUse" color-interpolation-filters="sRGB">
<feFlood flood-opacity="0" result="BackgroundImageFix"/>
<feColorMatrix in="SourceAlpha" type="matrix" values="0 0 0 0 0 0 0 0 0 0 0 0 0 0 0 0 0 0 127 0" result="hardAlpha"/>
<feOffset dy="1"/>
<feGaussianBlur stdDeviation="11"/>
<feColorMatrix type="matrix" values="0 0 0 0 0.397708 0 0 0 0 0.47749 0 0 0 0 0.575 0 0 0 0.18 0"/>
<feBlend mode="normal" in2="BackgroundImageFix" result="effect1_dropShadow_173_3087"/>
<feBlend mode="normal" in="SourceGraphic" in2="effect1_dropShadow_173_3087" result="shape"/>
</filter>
<filter id="filter3_d_173_3087" x="33.854" y="41.7412" width="146.797" height="101.954" filterUnits="userSpaceOnUse" color-interpolation-filters="sRGB">
<feFlood flood-opacity="0" result="BackgroundImageFix"/>
<feColorMatrix in="SourceAlpha" type="matrix" values="0 0 0 0 0 0 0 0 0 0 0 0 0 0 0 0 0 0 127 0" result="hardAlpha"/>
<feOffset dy="1"/>
<feGaussianBlur stdDeviation="11"/>
<feColorMatrix type="matrix" values="0 0 0 0 0.397708 0 0 0 0 0.47749 0 0 0 0 0.575 0 0 0 0.18 0"/>
<feBlend mode="normal" in2="BackgroundImageFix" result="effect1_dropShadow_173_3087"/>
<feBlend mode="normal" in="SourceGraphic" in2="effect1_dropShadow_173_3087" result="shape"/>
</filter>
<filter id="filter4_d_173_3087" x="34.0898" y="65.0688" width="145.728" height="91.0991" filterUnits="userSpaceOnUse" color-interpolation-filters="sRGB">
<feFlood flood-opacity="0" result="BackgroundImageFix"/>
<feColorMatrix in="SourceAlpha" type="matrix" values="0 0 0 0 0 0 0 0 0 0 0 0 0 0 0 0 0 0 127 0" result="hardAlpha"/>
<feOffset dy="-3"/>
<feGaussianBlur stdDeviation="6.5"/>
<feColorMatrix type="matrix" values="0 0 0 0 0.397708 0 0 0 0 0.47749 0 0 0 0 0.575 0 0 0 0.27 0"/>
<feBlend mode="normal" in2="BackgroundImageFix" result="effect1_dropShadow_173_3087"/>
<feBlend mode="normal" in="SourceGraphic" in2="effect1_dropShadow_173_3087" result="shape"/>
</filter>
<filter id="filter5_d_173_3087" x="17.3169" y="67.2354" width="179.274" height="119.235" filterUnits="userSpaceOnUse" color-interpolation-filters="sRGB">
<feFlood flood-opacity="0" result="BackgroundImageFix"/>
<feColorMatrix in="SourceAlpha" type="matrix" values="0 0 0 0 0 0 0 0 0 0 0 0 0 0 0 0 0 0 127 0" result="hardAlpha"/>
<feOffset dy="11"/>
<feGaussianBlur stdDeviation="11"/>
<feColorMatrix type="matrix" values="0 0 0 0 0.397708 0 0 0 0 0.47749 0 0 0 0 0.575 0 0 0 0.27 0"/>
<feBlend mode="normal" in2="BackgroundImageFix" result="effect1_dropShadow_173_3087"/>
<feBlend mode="normal" in="SourceGraphic" in2="effect1_dropShadow_173_3087" result="shape"/>
</filter>
<linearGradient id="paint0_linear_173_3087" x1="106.91" y1="76.4951" x2="106.91" y2="154.282" gradientUnits="userSpaceOnUse">
<stop stop-color="#FDFEFF"/>
<stop offset="0.9964" stop-color="#ECF0F5"/>
</linearGradient>
</defs>
</svg>
